<?xml version="1.0" encoding="UTF-8"?><svg id="Ebene_2" xmlns="http://www.w3.org/2000/svg" viewBox="0 0 246.33 226"><defs><style>.cls-1,.cls-2,.cls-3,.cls-4,.cls-5,.cls-6,.cls-7,.cls-8,.cls-9,.cls-10,.cls-11,.cls-12{stroke:#361e11;stroke-miterlimit:10;}.cls-1,.cls-2,.cls-3,.cls-6,.cls-7,.cls-8,.cls-9,.cls-12{stroke-width:3px;}.cls-1,.cls-2,.cls-5{fill:none;}.cls-1,.cls-5,.cls-7,.cls-9,.cls-10{stroke-linecap:round;}.cls-13{fill:#fff;}.cls-3,.cls-14{fill:#71c3c3;}.cls-15,.cls-11{fill:#361e11;}.cls-4{fill:#e9bc83;}.cls-4,.cls-10{stroke-width:2px;}.cls-16,.cls-8,.cls-9{fill:#faba3d;}.cls-5{stroke-width:6px;}.cls-6,.cls-7{fill:#b5d5d6;}.cls-10,.cls-12{fill:#f6f6f6;}</style></defs><path class="cls-8" d="M73.22,203.58s-17.16,6.69-7.12,13.95c10.05,7.26,26.93-6,26.93-6l-19.82-7.95Z"/><path class="cls-9" d="M71.2,210.63s-5.44,1.12-5.23,6.14"/><path class="cls-3" d="M66.38,61.57c-11.54-4.61-16.84-16.43-11.03-22.95,5.81-6.52,18.09-3.17,23.97,6.31-4,4.9-11.07,10.45-12.94,16.64Z"/><path class="cls-3" d="M183.06,60.73c11.54-4.61,16.84-16.43,11.03-22.95-5.81-6.52-18.09-3.17-23.97,6.31,4,4.9,11.07,10.45,12.94,16.64Z"/><path class="cls-6" d="M58.18,79.06s-27.16-34.96-45.92-13.44c-18.54,21.27,16.58,50.98,27.27,54.12,8.43,2.48,18.14,1.4,18.14,1.4,0,0,1.53-13.05,1.44-24.99-.08-11.94-.93-17.09-.93-17.09Z"/><path class="cls-7" d="M35.89,89.51s15.52,10.6,22.55,23.25"/><path class="cls-7" d="M39.52,121.38s-22.24,4.33-12.56,20.14c10.55,17.23,54.98-5.16,54.98-5.16l-24.28-15.21-18.14.24Z"/><path class="cls-6" d="M191.21,79.68s27.16-34.96,45.92-13.44c18.54,21.27-16.58,50.98-27.27,54.12-8.43,2.48-18.14,1.4-18.14,1.4,0,0-1.53-13.05-1.44-24.99.08-11.94.93-17.09.93-17.09Z"/><path class="cls-7" d="M213.5,90.14s-15.52,10.6-22.55,23.25"/><path class="cls-7" d="M209.87,122.01s20.65,3.46,12.56,20.14c-8.93,18.41-54.98-5.16-54.98-5.16l24.28-15.21,18.14.24Z"/><path class="cls-8" d="M177.46,203.58s17.16,6.69,7.12,13.95c-10.05,7.26-26.93-6-26.93-6l19.82-7.95Z"/><path class="cls-9" d="M179.48,210.63s5.44,1.12,5.23,6.14"/><path class="cls-5" d="M100.16,37.48s-1.12-18.7-18.21-24.56"/><circle class="cls-15" cx="75.22" cy="12.92" r="7.61"/><path class="cls-5" d="M146.4,37.48s1.12-18.7,18.21-24.56"/><circle class="cls-15" cx="171.34" cy="12.92" r="7.61"/><path class="cls-15" d="M195.02,138.18c.73,6.98,1.1,13.46.96,17.01-.03.88-.08,1.74-.14,2.59-15.25,8.73-41.58,14.5-71.48,14.5s-55.22-5.55-70.6-14c-.05-1.02-.07-2.06-.08-3.12-.04-4.17.39-10.08,1.09-16.42l.59.05c15.01,8.4,40.32,13.92,69.01,13.92s55.08-5.76,69.95-14.46l.7-.07Z"/><path class="cls-16" d="M195.84,157.78c-.47,7.6-1.69,14.32-3.57,20.25-15.62,7.66-40.22,12.6-67.91,12.6s-52.07-5.04-67.66-12.81c-1.66-5.74-2.67-12.23-2.94-19.54,15.38,8.45,41.26,14,70.6,14s56.23-5.77,71.48-14.5Z"/><path class="cls-14" d="M191.85,89.28c.09,1.39.13,2.79.13,4.2,0,4.85-.43,15.95-.6,20.22h0c-14.24,11.74-38.92,19.51-66.98,19.51s-51.71-7.45-66.08-18.78h-.08c.06-4.2.21-16.09.21-20.95,0-2.54.14-5.05.42-7.51l.2.02c9.59-24.66,35.42-42.32,65.78-42.32s58.46,19.25,66.96,45.61h.05Z"/><path class="cls-16" d="M191.85,89.28h-.05c-8.5-26.36-35.26-45.61-66.96-45.61s-56.19,17.66-65.78,42.32l-.2-.02c3.73-33.35,32.01-59.27,66.35-59.27s64.47,27.66,66.64,62.58Z"/><path class="cls-16" d="M58.31,114.43c14.37,11.33,38.61,18.78,66.08,18.78s52.74-7.77,66.98-19.51h0c-.04,1.08-.07,1.72-.07,1.72,1.54,5.58,2.87,14.51,3.71,22.76l-.7.07c-14.87,8.7-40.65,14.46-69.95,14.46s-54-5.52-69.01-13.92l-.59-.05c.86-7.79,2.13-16.21,3.44-22.8,0,0,0-.56.02-1.51h.08Z"/><path class="cls-15" d="M192.27,178.03c-2.54,8.03-6.3,14.6-11.07,19.91-13.53,6.6-34.81,11.05-56.78,11.05-24.29,0-45.07-5.09-58.53-12.95h-.01c-3.99-5-7.1-11.02-9.18-18.22,15.59,7.77,39.71,12.81,67.66,12.81s52.29-4.94,67.91-12.6Z"/><path class="cls-16" d="M181.2,197.94c-12.7,14.14-32.58,19.37-55.99,19.37-25.4,0-46.74-5.51-59.32-21.27,13.46,7.86,34.24,12.95,58.53,12.95,21.97,0,43.25-4.45,56.78-11.05Z"/><path class="cls-2" d="M65.88,196.04c-3.99-5-7.1-11.02-9.18-18.22-1.66-5.74-2.67-12.23-2.94-19.54-.05-1.02-.07-2.06-.08-3.12-.04-4.17.39-10.08,1.09-16.42.86-7.79,2.13-16.21,3.44-22.8,0,0,0-.56.02-1.51.06-4.2.21-16.09.21-20.95,0-2.54.14-5.05.42-7.51,3.73-33.35,32.01-59.27,66.35-59.27s64.47,27.66,66.64,62.58c.09,1.39.13,2.79.13,4.2,0,4.85-.43,15.95-.6,20.22-.04,1.08-.07,1.72-.07,1.72,1.54,5.58,2.87,14.51,3.71,22.76.73,6.98,1.1,13.46.96,17.01-.03.88-.08,1.74-.14,2.59-.47,7.6-1.69,14.32-3.57,20.25-2.54,8.03-6.3,14.6-11.07,19.91-12.7,14.14-32.58,19.37-55.99,19.37-25.4,0-46.74-5.51-59.32-21.27"/><path class="cls-2" d="M191.37,113.7c-14.24,11.74-38.92,19.51-66.98,19.51s-51.71-7.45-66.08-18.78"/><path class="cls-2" d="M194.32,138.25c-14.87,8.7-40.65,14.46-69.95,14.46s-54-5.52-69.01-13.92"/><path class="cls-2" d="M196.01,157.69c-.06.03-.11.06-.17.09-15.25,8.73-41.58,14.5-71.48,14.5s-55.22-5.55-70.6-14c-.03-.01-.05-.03-.08-.04"/><path class="cls-2" d="M192.73,177.81c-.15.08-.31.15-.46.22-15.62,7.66-40.22,12.6-67.91,12.6s-52.07-5.04-67.66-12.81h0"/><path class="cls-2" d="M181.2,197.94c-13.53,6.6-34.81,11.05-56.78,11.05-24.29,0-45.07-5.09-58.53-12.95h-.01"/><path class="cls-2" d="M59.06,85.99c9.59-24.66,35.42-42.32,65.78-42.32s58.46,19.25,66.96,45.61"/><ellipse class="cls-12" cx="95.53" cy="74.92" rx="23.04" ry="22.3"/><ellipse class="cls-12" cx="153.34" cy="75.25" rx="22.71" ry="21.98"/><ellipse class="cls-11" cx="147.18" cy="76.19" rx="6.91" ry="7.8"/><ellipse class="cls-13" cx="150.56" cy="74.8" rx="1.52" ry="1.99"/><path class="cls-4" d="M125.01,101.88c4.1.06,5.61,1.87,9.28,3.14,2.88.99,6.96-.37,7.43-3.14.47-2.77.16-9.05-7.38-10.47s-16.16-.62-18.84.52c-5.18,2.2-8.16,6.33-5.81,10.52,1.67,2.98,4.78,2.75,6.23,2.67,3.84-.22,6.45-3.28,9.09-3.24Z"/><path class="cls-10" d="M125.01,103.09v11.36s-.5,1.83-3.7,1.73-5.49-2.98-5.39-6.02.48-5.07.48-5.07c0,0,2.37-.59,4.48-1.66s2.85-1.62,4.13-1.54,0,1.2,0,1.2Z"/><path class="cls-10" d="M124.87,103.09v11.35s.5,1.83,3.69,1.73,5.49-2.98,5.39-6.02c-.1-3.03-.48-5.07-.48-5.07,0,0-2.37-.59-4.47-1.66s-2.85-1.62-4.12-1.54,0,1.2,0,1.2Z"/><path class="cls-1" d="M63.59,45.92c5.44,2.23,8.04,6.7,8.04,6.7"/><path class="cls-1" d="M185.84,45.08c-5.44,2.23-8.04,6.7-8.04,6.7"/><path class="cls-11" d="M124.84,96.02c-4.31,0-7.8-1.21-7.8-5.02s3.49-7.54,7.8-7.54,7.8,3.72,7.8,7.54-3.49,5.02-7.8,5.02Z"/><ellipse class="cls-11" cx="101.45" cy="76.19" rx="6.91" ry="7.8"/><ellipse class="cls-13" cx="104.76" cy="74.8" rx="1.52" ry="1.99"/><path class="cls-9" d="M60.97,128.82s-14.09,4.61-16.33,15.35c-2.94,14.14,3.07,21.21,11.86,19.68s3.95-10.91,4.01-14.51c.07-4.01,2.2-7.33,6.31-9.21"/><path class="cls-9" d="M56.33,154.53s3.53,4.72,2.81,8.43"/><path class="cls-9" d="M50.78,158.74s1.67,1.75,1.78,4.68"/><path class="cls-9" d="M188.71,130.63s14.09,4.61,16.33,15.35c2.94,14.14-3.07,21.21-11.86,19.68-8.79-1.54-3.95-10.91-4.01-14.51-.07-4.01-2.2-7.33-6.31-9.21"/><path class="cls-9" d="M193.83,156.34s-3.53,4.72-2.81,8.43"/><path class="cls-9" d="M199.38,160.56s-1.67,1.75-1.78,4.68"/></svg>