<svg width="1998" height="779" xmlns="http://www.w3.org/2000/svg" xmlns:xlink="http://www.w3.org/1999/xlink" xml:space="preserve" overflow="hidden"><g transform="translate(-1077 -1434)"><g><g><g><g><path d="M250.75 697.182C250.75 697.182 191.984 720.093 226.367 744.956 260.784 769.818 318.591 724.408 318.591 724.408L250.716 697.182Z" stroke="#361E11" stroke-width="10.2738" stroke-linecap="butt" stroke-linejoin="miter" stroke-miterlimit="10" stroke-opacity="1" fill="#FABA3D" fill-rule="nonzero" fill-opacity="1" transform="matrix(1.00049 0 0 1 1079 1436.52)"/><path d="M243.832 721.326C243.832 721.326 225.202 725.161 225.922 742.353" stroke="#361E11" stroke-width="10.2738" stroke-linecap="round" stroke-linejoin="miter" stroke-miterlimit="10" stroke-opacity="1" fill="#FABA3D" fill-rule="nonzero" fill-opacity="1" transform="matrix(1.00049 0 0 1 1079 1436.52)"/><path d="M227.326 210.853C187.806 195.066 169.655 154.587 189.552 132.258 209.449 109.93 251.503 121.402 271.64 153.868 257.942 170.648 233.73 189.655 227.326 210.853Z" stroke="#361E11" stroke-width="10.2738" stroke-linecap="butt" stroke-linejoin="miter" stroke-miterlimit="10" stroke-opacity="1" fill="#71C3C3" fill-rule="nonzero" fill-opacity="1" transform="matrix(1.00049 0 0 1 1079 1436.52)"/><path d="M626.909 207.977C666.429 192.189 684.58 151.71 664.683 129.382 644.786 107.053 602.731 118.526 582.595 150.991 596.293 167.772 620.505 186.778 626.909 207.977Z" stroke="#361E11" stroke-width="10.2738" stroke-linecap="butt" stroke-linejoin="miter" stroke-miterlimit="10" stroke-opacity="1" fill="#71C3C3" fill-rule="nonzero" fill-opacity="1" transform="matrix(1.00049 0 0 1 1079 1436.52)"/><path d="M199.244 270.75C199.244 270.75 106.231 151.025 41.9857 224.723-21.5066 297.564 98.7658 399.31 135.375 410.063 164.244 418.556 197.497 414.857 197.497 414.857 197.497 414.857 202.737 370.166 202.429 329.276 202.155 288.386 199.244 270.75 199.244 270.75Z" stroke="#361E11" stroke-width="10.2738" stroke-linecap="butt" stroke-linejoin="miter" stroke-miterlimit="10" stroke-opacity="1" fill="#B5D5D6" fill-rule="nonzero" fill-opacity="1" transform="matrix(1.00049 0 0 1 1079 1436.52)"/><path d="M122.909 306.537C122.909 306.537 176.059 342.838 200.134 386.159" stroke="#361E11" stroke-width="10.2738" stroke-linecap="round" stroke-linejoin="miter" stroke-miterlimit="10" stroke-opacity="1" fill="#B5D5D6" fill-rule="nonzero" fill-opacity="1" transform="matrix(1.00049 0 0 1 1079 1436.52)"/><path d="M135.341 415.679C135.341 415.679 59.1773 430.508 92.3275 484.651 128.457 543.657 280.613 466.98 280.613 466.98L197.463 414.892 135.341 415.713Z" stroke="#361E11" stroke-width="10.2738" stroke-linecap="round" stroke-linejoin="miter" stroke-miterlimit="10" stroke-opacity="1" fill="#B5D5D6" fill-rule="nonzero" fill-opacity="1" transform="matrix(1.00049 0 0 1 1079 1436.52)"/><path d="M654.82 272.873C654.82 272.873 747.832 153.149 812.078 226.846 875.57 299.688 755.298 401.433 718.689 412.186 689.819 420.679 656.566 416.981 656.566 416.981 656.566 416.981 651.327 372.289 651.635 331.4 651.909 290.51 654.82 272.873 654.82 272.873Z" stroke="#361E11" stroke-width="10.2738" stroke-linecap="butt" stroke-linejoin="miter" stroke-miterlimit="10" stroke-opacity="1" fill="#B5D5D6" fill-rule="nonzero" fill-opacity="1" transform="matrix(1.00049 0 0 1 1079 1436.52)"/><path d="M731.154 308.694C731.154 308.694 678.004 344.995 653.929 388.317" stroke="#361E11" stroke-width="10.2738" stroke-linecap="round" stroke-linejoin="miter" stroke-miterlimit="10" stroke-opacity="1" fill="#B5D5D6" fill-rule="nonzero" fill-opacity="1" transform="matrix(1.00049 0 0 1 1079 1436.52)"/><path d="M718.723 417.837C718.723 417.837 789.441 429.686 761.736 486.808 731.154 549.855 573.451 469.137 573.451 469.137L656.601 417.049 718.723 417.871Z" stroke="#361E11" stroke-width="10.2738" stroke-linecap="round" stroke-linejoin="miter" stroke-miterlimit="10" stroke-opacity="1" fill="#B5D5D6" fill-rule="nonzero" fill-opacity="1" transform="matrix(1.00049 0 0 1 1079 1436.52)"/><path d="M607.731 697.182C607.731 697.182 666.498 720.093 632.115 744.956 597.697 769.818 539.89 724.408 539.89 724.408L607.766 697.182Z" stroke="#361E11" stroke-width="10.2738" stroke-linecap="butt" stroke-linejoin="miter" stroke-miterlimit="10" stroke-opacity="1" fill="#FABA3D" fill-rule="nonzero" fill-opacity="1" transform="matrix(1.00049 0 0 1 1079 1436.52)"/><path d="M614.649 721.326C614.649 721.326 633.279 725.161 632.56 742.353" stroke="#361E11" stroke-width="10.2738" stroke-linecap="round" stroke-linejoin="miter" stroke-miterlimit="10" stroke-opacity="1" fill="#FABA3D" fill-rule="nonzero" fill-opacity="1" transform="matrix(1.00049 0 0 1 1079 1436.52)"/><path d="M343.009 128.354C343.009 128.354 339.173 64.3142 280.647 44.246" stroke="#361E11" stroke-width="20.5477" stroke-linecap="round" stroke-linejoin="miter" stroke-miterlimit="10" stroke-opacity="1" fill="none" fill-rule="nonzero" transform="matrix(1.00049 0 0 1 1079 1436.52)"/><path d="M283.66 44.246C283.66 58.6392 271.992 70.3073 257.599 70.3073 243.206 70.3073 231.538 58.6392 231.538 44.246 231.538 29.8527 243.206 18.1847 257.599 18.1847 271.992 18.1847 283.66 29.8527 283.66 44.246Z" fill="#361E11" fill-rule="nonzero" fill-opacity="1" transform="matrix(1.00049 0 0 1 1079 1436.52)"/><path d="M501.363 128.354C501.363 128.354 505.199 64.3142 563.725 44.246" stroke="#361E11" stroke-width="20.5477" stroke-linecap="round" stroke-linejoin="miter" stroke-miterlimit="10" stroke-opacity="1" fill="none" fill-rule="nonzero" transform="matrix(1.00049 0 0 1 1079 1436.52)"/><path d="M612.834 44.246C612.834 58.6392 601.166 70.3073 586.773 70.3073 572.38 70.3073 560.711 58.6392 560.711 44.246 560.711 29.8527 572.38 18.1847 586.773 18.1847 601.166 18.1847 612.834 29.8527 612.834 44.246Z" fill="#361E11" fill-rule="nonzero" fill-opacity="1" transform="matrix(1.00049 0 0 1 1079 1436.52)"/><path d="M667.868 473.213C670.367 497.116 671.635 519.308 671.155 531.465 671.052 534.479 670.881 537.424 670.676 540.335 618.45 570.232 528.28 589.992 425.885 589.992 323.489 589.992 236.778 570.985 184.107 542.047 183.936 538.554 183.867 534.993 183.833 531.363 183.696 517.082 185.169 496.842 187.566 475.13L189.586 475.302C240.99 504.068 327.667 522.972 425.919 522.972 524.171 522.972 614.546 503.246 665.47 473.452L667.868 473.213Z" fill="#361E11" fill-rule="nonzero" fill-opacity="1" transform="matrix(1.00049 0 0 1 1079 1436.52)"/><path d="M670.676 540.335C669.066 566.362 664.888 589.375 658.45 609.683 604.957 635.916 520.712 652.833 425.885 652.833 331.057 652.833 247.565 635.573 194.175 608.964 188.491 589.307 185.032 567.081 184.107 542.047 236.778 570.985 325.406 589.992 425.885 589.992 526.363 589.992 618.45 570.232 670.676 540.335Z" fill="#FABA3D" fill-rule="nonzero" fill-opacity="1" transform="matrix(1.00049 0 0 1 1079 1436.52)"/><path d="M657.012 305.749C657.32 310.509 657.457 315.304 657.457 320.133 657.457 336.742 655.984 374.755 655.402 389.378L655.402 389.378C606.635 429.583 522.116 456.192 426.022 456.192 329.927 456.192 248.935 430.679 199.723 391.878L199.449 391.878C199.655 377.495 200.168 336.776 200.168 320.133 200.168 311.434 200.648 302.838 201.607 294.414L202.292 294.482C235.134 210.031 323.591 149.553 427.563 149.553 531.534 149.553 627.765 215.476 656.875 305.749L657.046 305.749Z" fill="#71C3C3" fill-rule="nonzero" fill-opacity="1" transform="matrix(1.00049 0 0 1 1079 1436.52)"/><path d="M657.012 305.749 656.84 305.749C627.731 215.476 536.089 149.553 427.528 149.553 318.968 149.553 235.1 210.031 202.257 294.482L201.573 294.414C214.346 180.203 311.194 91.4371 428.795 91.4371 546.397 91.4371 649.58 186.162 657.012 305.749Z" fill="#FABA3D" fill-rule="nonzero" fill-opacity="1" transform="matrix(1.00049 0 0 1 1079 1436.52)"/><path d="M199.689 391.878C248.901 430.679 331.913 456.192 425.987 456.192 520.061 456.192 606.601 429.583 655.368 389.378L655.368 389.378C655.231 393.077 655.128 395.269 655.128 395.269 660.402 414.378 664.957 444.96 667.833 473.213L665.436 473.452C614.512 503.246 526.226 522.972 425.885 522.972 325.543 522.972 240.956 504.068 189.552 475.302L187.532 475.13C190.477 448.453 194.826 419.617 199.312 397.049 199.312 397.049 199.312 395.132 199.381 391.878L199.655 391.878Z" fill="#FABA3D" fill-rule="nonzero" fill-opacity="1" transform="matrix(1.00049 0 0 1 1079 1436.52)"/><path d="M658.45 609.683C649.751 637.183 636.875 659.683 620.539 677.867 574.204 700.47 501.329 715.709 426.09 715.709 342.906 715.709 271.743 698.278 225.648 671.361L225.613 671.361C211.949 654.238 201.299 633.621 194.175 608.964 247.565 635.573 330.167 652.833 425.885 652.833 521.602 652.833 604.957 635.916 658.45 609.683Z" fill="#361E11" fill-rule="nonzero" fill-opacity="1" transform="matrix(1.00049 0 0 1 1079 1436.52)"/><path d="M620.539 677.867C577.047 726.291 508.966 744.202 428.795 744.202 341.81 744.202 268.729 725.332 225.648 671.361 271.743 698.278 342.906 715.709 426.09 715.709 501.329 715.709 574.204 700.47 620.539 677.867Z" fill="#FABA3D" fill-rule="nonzero" fill-opacity="1" transform="matrix(1.00049 0 0 1 1079 1436.52)"/><path d="M225.613 671.361C211.949 654.238 201.299 633.621 194.175 608.964 188.491 589.307 185.032 567.081 184.107 542.047 183.936 538.554 183.867 534.993 183.833 531.363 183.696 517.082 185.169 496.842 187.566 475.13 190.511 448.453 194.86 419.617 199.347 397.049 199.347 397.049 199.347 395.132 199.415 391.878 199.621 377.495 200.134 336.776 200.134 320.133 200.134 311.434 200.614 302.838 201.573 294.414 214.346 180.203 311.194 91.4371 428.795 91.4371 546.397 91.4371 649.58 186.162 657.012 305.749 657.32 310.509 657.457 315.304 657.457 320.133 657.457 336.742 655.984 374.755 655.402 389.378 655.265 393.077 655.162 395.269 655.162 395.269 660.436 414.378 664.991 444.96 667.868 473.213 670.367 497.116 671.635 519.308 671.155 531.465 671.052 534.479 670.881 537.424 670.676 540.335 669.066 566.362 664.888 589.375 658.45 609.683 649.751 637.183 636.875 659.683 620.539 677.867 577.047 726.291 508.966 744.202 428.795 744.202 341.81 744.202 268.729 725.332 225.648 671.361" stroke="#361E11" stroke-width="10.2738" stroke-linecap="butt" stroke-linejoin="miter" stroke-miterlimit="10" stroke-opacity="1" fill="none" fill-rule="nonzero" transform="matrix(1.00049 0 0 1 1079 1436.52)"/><path d="M655.368 389.378C606.601 429.583 522.082 456.192 425.987 456.192 329.893 456.192 248.901 430.679 199.689 391.878" stroke="#361E11" stroke-width="10.2738" stroke-linecap="butt" stroke-linejoin="miter" stroke-miterlimit="10" stroke-opacity="1" fill="none" fill-rule="nonzero" transform="matrix(1.00049 0 0 1 1079 1436.52)"/><path d="M665.47 473.452C614.546 503.246 526.26 522.972 425.919 522.972 325.578 522.972 240.99 504.068 189.586 475.302" stroke="#361E11" stroke-width="10.2738" stroke-linecap="butt" stroke-linejoin="miter" stroke-miterlimit="10" stroke-opacity="1" fill="none" fill-rule="nonzero" transform="matrix(1.00049 0 0 1 1079 1436.52)"/><path d="M671.258 540.027C671.052 540.13 670.881 540.232 670.676 540.335 618.45 570.232 528.28 589.992 425.885 589.992 323.489 589.992 236.778 570.985 184.107 542.047 184.004 542.013 183.936 541.945 183.833 541.91" stroke="#361E11" stroke-width="10.2738" stroke-linecap="butt" stroke-linejoin="miter" stroke-miterlimit="10" stroke-opacity="1" fill="none" fill-rule="nonzero" transform="matrix(1.00049 0 0 1 1079 1436.52)"/><path d="M660.025 608.93C659.511 609.204 658.964 609.444 658.45 609.683 604.957 635.916 520.712 652.833 425.885 652.833 331.057 652.833 247.565 635.573 194.175 608.964L194.175 608.964" stroke="#361E11" stroke-width="10.2738" stroke-linecap="butt" stroke-linejoin="miter" stroke-miterlimit="10" stroke-opacity="1" fill="none" fill-rule="nonzero" transform="matrix(1.00049 0 0 1 1079 1436.52)"/><path d="M620.539 677.867C574.204 700.47 501.329 715.709 426.09 715.709 342.906 715.709 271.743 698.278 225.648 671.361L225.613 671.361" stroke="#361E11" stroke-width="10.2738" stroke-linecap="butt" stroke-linejoin="miter" stroke-miterlimit="10" stroke-opacity="1" fill="none" fill-rule="nonzero" transform="matrix(1.00049 0 0 1 1079 1436.52)"/><path d="M202.257 294.482C235.1 210.031 323.557 149.553 427.528 149.553 531.5 149.553 627.731 215.476 656.84 305.749" stroke="#361E11" stroke-width="10.2738" stroke-linecap="butt" stroke-linejoin="miter" stroke-miterlimit="10" stroke-opacity="1" fill="none" fill-rule="nonzero" transform="matrix(1.00049 0 0 1 1079 1436.52)"/><path d="M406.056 256.572C406.056 298.749 370.73 332.941 327.153 332.941 283.576 332.941 248.25 298.749 248.25 256.572 248.25 214.394 283.576 180.203 327.153 180.203 370.73 180.203 406.056 214.394 406.056 256.572Z" stroke="#361E11" stroke-width="10.2738" stroke-linecap="butt" stroke-linejoin="miter" stroke-miterlimit="10" stroke-opacity="1" fill="#F6F6F6" fill-rule="nonzero" fill-opacity="1" transform="matrix(1.00049 0 0 1 1079 1436.52)"/><path d="M602.903 257.702C602.903 299.274 568.083 332.975 525.13 332.975 482.177 332.975 447.357 299.274 447.357 257.702 447.357 216.13 482.177 182.429 525.13 182.429 568.083 182.429 602.903 216.13 602.903 257.702Z" stroke="#361E11" stroke-width="10.2738" stroke-linecap="butt" stroke-linejoin="miter" stroke-miterlimit="10" stroke-opacity="1" fill="#F6F6F6" fill-rule="nonzero" fill-opacity="1" transform="matrix(1.00049 0 0 1 1079 1436.52)"/><path d="M527.698 260.921C527.698 275.674 517.103 287.633 504.034 287.633 490.965 287.633 480.37 275.674 480.37 260.921 480.37 246.168 490.965 234.209 504.034 234.209 517.103 234.209 527.698 246.168 527.698 260.921Z" stroke="#361E11" stroke-width="3.42461" stroke-linecap="butt" stroke-linejoin="miter" stroke-miterlimit="10" stroke-opacity="1" fill="#361E11" fill-rule="nonzero" fill-opacity="1" transform="matrix(1.00049 0 0 1 1079 1436.52)"/><path d="M520.815 256.161C520.815 259.925 518.484 262.976 515.609 262.976 512.734 262.976 510.404 259.925 510.404 256.161 510.404 252.397 512.734 249.346 515.609 249.346 518.484 249.346 520.815 252.397 520.815 256.161Z" fill="#FFFFFF" fill-rule="nonzero" fill-opacity="1" transform="matrix(1.00049 0 0 1 1079 1436.52)"/><path d="M428.111 348.899C442.151 349.105 447.323 355.303 459.891 359.653 469.754 363.043 483.726 358.385 485.336 348.899 486.945 339.413 485.884 317.907 460.062 313.044 434.241 308.181 404.72 310.92 395.543 314.824 377.803 322.359 367.598 336.502 375.646 350.851 381.365 361.057 392.015 360.269 396.981 359.995 410.131 359.242 419.07 348.762 428.111 348.899Z" stroke="#361E11" stroke-width="6.84922" stroke-linecap="butt" stroke-linejoin="miter" stroke-miterlimit="10" stroke-opacity="1" fill="#E9BC83" fill-rule="nonzero" fill-opacity="1" transform="matrix(1.00049 0 0 1 1079 1436.52)"/><path d="M428.111 353.043 428.111 391.947C428.111 391.947 426.398 398.214 415.439 397.871 404.481 397.529 396.638 387.666 396.981 377.255 397.323 366.844 398.625 359.892 398.625 359.892 398.625 359.892 406.741 357.872 413.967 354.207 421.193 350.543 423.727 348.66 428.111 348.934 432.494 349.208 428.111 353.043 428.111 353.043Z" stroke="#361E11" stroke-width="6.84922" stroke-linecap="round" stroke-linejoin="miter" stroke-miterlimit="10" stroke-opacity="1" fill="#F6F6F6" fill-rule="nonzero" fill-opacity="1" transform="matrix(1.00049 0 0 1 1079 1436.52)"/><path d="M427.631 353.043 427.631 391.912C427.631 391.912 429.343 398.179 440.268 397.837 451.192 397.495 459.069 387.632 458.727 377.221 458.384 366.844 457.083 359.858 457.083 359.858 457.083 359.858 448.966 357.838 441.775 354.173 434.583 350.509 432.015 348.625 427.665 348.899 423.316 349.173 427.665 353.009 427.665 353.009Z" stroke="#361E11" stroke-width="6.84922" stroke-linecap="round" stroke-linejoin="miter" stroke-miterlimit="10" stroke-opacity="1" fill="#F6F6F6" fill-rule="nonzero" fill-opacity="1" transform="matrix(1.00049 0 0 1 1079 1436.52)"/><path d="M217.771 157.258C236.401 164.895 245.305 180.203 245.305 180.203" stroke="#361E11" stroke-width="10.2738" stroke-linecap="round" stroke-linejoin="miter" stroke-miterlimit="10" stroke-opacity="1" fill="none" fill-rule="nonzero" transform="matrix(1.00049 0 0 1 1079 1436.52)"/><path d="M636.43 154.381C617.8 162.018 608.896 177.326 608.896 177.326" stroke="#361E11" stroke-width="10.2738" stroke-linecap="round" stroke-linejoin="miter" stroke-miterlimit="10" stroke-opacity="1" fill="none" fill-rule="nonzero" transform="matrix(1.00049 0 0 1 1079 1436.52)"/><path d="M427.528 328.831C412.768 328.831 400.816 324.687 400.816 311.64 400.816 298.592 412.768 285.818 427.528 285.818 442.288 285.818 454.24 298.558 454.24 311.64 454.24 324.722 442.288 328.831 427.528 328.831Z" stroke="#361E11" stroke-width="3.42461" stroke-linecap="butt" stroke-linejoin="miter" stroke-miterlimit="10" stroke-opacity="1" fill="#361E11" fill-rule="nonzero" fill-opacity="1" transform="matrix(1.00049 0 0 1 1079 1436.52)"/><path d="M371.091 260.921C371.091 275.674 360.496 287.633 347.427 287.633 334.357 287.633 323.763 275.674 323.763 260.921 323.763 246.168 334.357 234.209 347.427 234.209 360.496 234.209 371.091 246.168 371.091 260.921Z" stroke="#361E11" stroke-width="3.42461" stroke-linecap="butt" stroke-linejoin="miter" stroke-miterlimit="10" stroke-opacity="1" fill="#361E11" fill-rule="nonzero" fill-opacity="1" transform="matrix(1.00049 0 0 1 1079 1436.52)"/><path d="M363.968 256.161C363.968 259.925 361.637 262.976 358.762 262.976 355.887 262.976 353.557 259.925 353.557 256.161 353.557 252.397 355.887 249.346 358.762 249.346 361.637 249.346 363.968 252.397 363.968 256.161Z" fill="#FFFFFF" fill-rule="nonzero" fill-opacity="1" transform="matrix(1.00049 0 0 1 1079 1436.52)"/><path d="M208.798 441.158C208.798 441.158 160.546 456.946 152.875 493.726 142.806 542.15 163.388 566.362 193.49 561.122 223.593 555.883 207.018 523.76 207.223 511.431 207.463 497.699 214.757 486.329 228.832 479.891" stroke="#361E11" stroke-width="10.2738" stroke-linecap="round" stroke-linejoin="miter" stroke-miterlimit="10" stroke-opacity="1" fill="#FABA3D" fill-rule="nonzero" fill-opacity="1" transform="matrix(1.00049 0 0 1 1079 1436.52)"/><path d="M192.908 529.205C192.908 529.205 204.997 545.369 202.531 558.075" stroke="#361E11" stroke-width="10.2738" stroke-linecap="round" stroke-linejoin="miter" stroke-miterlimit="10" stroke-opacity="1" fill="#FABA3D" fill-rule="nonzero" fill-opacity="1" transform="matrix(1.00049 0 0 1 1079 1436.52)"/><path d="M173.902 543.623C173.902 543.623 179.621 549.616 179.998 559.65" stroke="#361E11" stroke-width="10.2738" stroke-linecap="round" stroke-linejoin="miter" stroke-miterlimit="10" stroke-opacity="1" fill="#FABA3D" fill-rule="nonzero" fill-opacity="1" transform="matrix(1.00049 0 0 1 1079 1436.52)"/><path d="M646.258 447.357C646.258 447.357 694.511 463.144 702.182 499.925 712.25 548.349 691.669 572.561 661.566 567.321 631.464 562.047 648.039 529.958 647.834 517.63 647.594 503.897 640.299 492.527 626.224 486.089" stroke="#361E11" stroke-width="10.2738" stroke-linecap="round" stroke-linejoin="miter" stroke-miterlimit="10" stroke-opacity="1" fill="#FABA3D" fill-rule="nonzero" fill-opacity="1" transform="matrix(1.00049 0 0 1 1079 1436.52)"/><path d="M663.792 535.404C663.792 535.404 651.703 551.568 654.169 564.273" stroke="#361E11" stroke-width="10.2738" stroke-linecap="round" stroke-linejoin="miter" stroke-miterlimit="10" stroke-opacity="1" fill="#FABA3D" fill-rule="nonzero" fill-opacity="1" transform="matrix(1.00049 0 0 1 1079 1436.52)"/><path d="M682.799 549.855C682.799 549.855 677.08 555.849 676.703 565.883" stroke="#361E11" stroke-width="10.2738" stroke-linecap="round" stroke-linejoin="miter" stroke-miterlimit="10" stroke-opacity="1" fill="#FABA3D" fill-rule="nonzero" fill-opacity="1" transform="matrix(1.00049 0 0 1 1079 1436.52)"/></g></g></g><text fill="#351D11" fill-opacity="1" font-family="ADLaM Display,ADLaM Display_MSFontService,sans-serif" font-style="normal" font-variant="normal" font-weight="400" font-stretch="normal" font-size="248" text-anchor="start" direction="ltr" writing-mode="lr-tb" unicode-bidi="normal" text-decoration="none" transform="matrix(1 0 0 1 1986.29 1911)">Beehive</text></g></g></svg>